# xmcd
#
# Track frame offsets:
#	150
#	15055
#	32939
#	51160
#	68960
#	86323
#	105220
#	123133
#	139138
#	156295
#
# Disc length: 2278 seconds
#
# Revision: 0
# Processed by: cddbd v1.5.2PL0 Copyright (c) Steve Scherf et al.
# Submitted via: EasyCDDAExtractor 12.0.4.1
#
DISCID=7108e40a
DTITLE=Bogie Dodge
DYEAR=2003
DGENRE=Pop
TTITLE0=คนจะโดนทิ้ง
TTITLE1=บิด
TTITLE2=อยากให้เธอเข้าใจ
TTITLE3=ทำร้ายฉันคนเดียวก็พอ
TTITLE4=อย่ารักกันดัง(หนวกหู)
TTITLE5=เราต่างก็ทำเพื่อเธอ
TTITLE6=เบอร์ที่เธอไม่เคยรับ
TTITLE7=ไม่สวย(แต่โดน)
TTITLE8=ลอยกลางอากาศ
TTITLE9=วันที่เธออยากลืม
EXTD=
EXTT0=
EXTT1=
EXTT2=
EXTT3=
EXTT4=
EXTT5=
EXTT6=
EXTT7=
EXTT8=
EXTT9=
PLAYORDER=
